<svg width="56" height="56" viewBox="0 0 56 56" fill="none" xmlns="http://www.w3.org/2000/svg">
<g id="archive-24">
<g id="Union">
<path fill-rule="evenodd" clip-rule="evenodd" d="M6.41666 4.66667C4.1615 4.66667 2.33333 6.49484 2.33333 8.75001V16.9167C2.33333 19.1718 4.1615 21 6.41666 21H49.5833C51.8385 21 53.6667 19.1718 53.6667 16.9167V8.75001C53.6667 6.49484 51.8385 4.66667 49.5833 4.66667H6.41666ZM49.5833 8.16667H6.41666C6.0945 8.16667 5.83333 8.42784 5.83333 8.75001V16.9167C5.83333 17.2388 6.0945 17.5 6.41666 17.5H49.5833C49.9055 17.5 50.1667 17.2388 50.1667 16.9167V8.75001C50.1667 8.42784 49.9055 8.16667 49.5833 8.16667Z" fill="#BDBDBD"/>
<path d="M6.41666 23.3333C7.38316 23.3333 8.16666 24.1168 8.16666 25.0833V47.25C8.16666 47.5722 8.42783 47.8333 8.74999 47.8333H47.25C47.5722 47.8333 47.8333 47.5722 47.8333 47.25V25.0833C47.8333 24.1168 48.6168 23.3333 49.5833 23.3333C50.5498 23.3333 51.3333 24.1168 51.3333 25.0833V47.25C51.3333 49.5052 49.5052 51.3333 47.25 51.3333H8.74999C6.49483 51.3333 4.66666 49.5052 4.66666 47.25V25.0833C4.66666 24.1168 5.45016 23.3333 6.41666 23.3333Z" fill="#BDBDBD"/>
<path d="M22.75 26.8333C21.7835 26.8333 21 27.6168 21 28.5833C21 29.5498 21.7835 30.3333 22.75 30.3333H33.25C34.2165 30.3333 35 29.5498 35 28.5833C35 27.6168 34.2165 26.8333 33.25 26.8333H22.75Z" fill="#BDBDBD"/>
</g>
</g>
</svg>
