<svg width="56" height="56" viewBox="0 0 56 56" fill="none" xmlns="http://www.w3.org/2000/svg">
<g id="file-media-24">
<path id="Union" fill-rule="evenodd" clip-rule="evenodd" d="M5.25 9.33333C4.92783 9.33333 4.66666 9.5945 4.66666 9.91666V46.0833C4.66666 46.4055 4.92783 46.6667 5.25 46.6667H12.6654L32.6658 25.6136C34.2472 23.9489 36.8899 23.9151 38.5135 25.5387L51.3333 38.3585V9.91666C51.3333 9.5945 51.0722 9.33333 50.75 9.33333H5.25ZM50.75 50.1667H13.4265H13.4063H5.25C2.99484 50.1667 1.16666 48.3385 1.16666 46.0833V9.91666C1.16666 7.6615 2.99484 5.83333 5.25 5.83333H50.75C53.0052 5.83333 54.8333 7.6615 54.8333 9.91666V46.0833C54.8333 48.3385 53.0052 50.1667 50.75 50.1667ZM35.2033 28.0243L17.493 46.6667H50.75C51.0722 46.6667 51.3333 46.4055 51.3333 46.0833V43.3082L36.0387 28.0136C35.8067 27.7816 35.4292 27.7864 35.2033 28.0243ZM21 21.5833C21 23.8385 19.1718 25.6667 16.9167 25.6667C14.6615 25.6667 12.8333 23.8385 12.8333 21.5833C12.8333 19.3282 14.6615 17.5 16.9167 17.5C19.1718 17.5 21 19.3282 21 21.5833ZM24.5 21.5833C24.5 25.7715 21.1048 29.1667 16.9167 29.1667C12.7285 29.1667 9.33333 25.7715 9.33333 21.5833C9.33333 17.3952 12.7285 14 16.9167 14C21.1048 14 24.5 17.3952 24.5 21.5833Z" fill="#BDBDBD"/>
</g>
</svg>
